<svg xmlns="http://www.w3.org/2000/svg" id="Camada_1" viewBox="0 0 2428.57 705.15"><defs><style>      .cls-1 {        fill: #ff5a5a;      }    </style></defs><g><path class="cls-1" d="M388.25,352.55c0,9.19-3.47,17.57-9.18,23.9-6.53,7.24-15.99,11.8-26.52,11.8-19.71,0-35.7-15.98-35.7-35.7s15.98-35.7,35.7-35.7,34.73,15.03,35.65,33.92c.03.59.04,1.18.04,1.78Z"></path><path class="cls-1" d="M548.52,470.05h-31.09c-4.85,0-9.17-3.05-10.8-7.62l-54.29-152.56h0s-.23-.65-.23-.65v.03s-8.13,22.82-8.13,22.82c-1.63,4.57-5.95,7.62-10.8,7.62h-31.09c-7.92,0-13.46-7.85-10.8-15.31l30.44-85.53c.81-2.28,2.98-3.81,5.4-3.81h49.98c2.43,0,4.59,1.53,5.4,3.81l76.83,215.88c2.66,7.47-2.88,15.31-10.8,15.31Z"></path><path class="cls-1" d="M455.73,365.65c7.38,0,12.87,6.87,11.17,14.05-7.66,32.38-28.72,59.58-57,75.43-30.28,16.96-59.41,14.91-60.73,14.88-63.42-1.79-114.27-53.83-114.13-117.72.14-64.9,53.24-117.24,118.13-117.24l34.87.03c6.33,0,11.47,5.13,11.47,11.47v29.29c0,6.33-5.13,11.47-11.47,11.47l-34.99-.03c-36.04,0-65.92,29.48-65.79,65.52.13,35.94,29.31,65.04,65.28,65.04,17.54,0,50.71-9.87,61.88-44.23,1.54-4.73,5.94-7.95,10.91-7.95h30.39Z"></path></g><g><path class="cls-1" d="M641.15,426.52v-145.61h28.08v145.61h-28.08Z"></path><path class="cls-1" d="M687.74,426.52v-104.21h24.55l2.08,17.26c3.33-5.96,7.94-10.74,13.83-14.35,5.89-3.6,13-5.41,21.32-5.41s15.88,1.84,21.84,5.51c5.96,3.68,10.5,9.02,13.62,16.02,3.12,7,4.68,15.57,4.68,25.69v59.49h-27.87v-56.79c0-8.46-1.77-14.94-5.3-19.45-3.54-4.5-8.98-6.76-16.33-6.76-4.72,0-8.91,1.11-12.58,3.33-3.68,2.22-6.55,5.41-8.63,9.57-2.08,4.16-3.12,9.22-3.12,15.19v54.91h-28.08Z"></path><path class="cls-1" d="M849.16,429.02c-9.43,0-17.68-1.53-24.75-4.58-7.07-3.05-12.66-7.24-16.74-12.58-4.09-5.34-6.48-11.47-7.18-18.41h28.08c.69,2.64,1.87,5.03,3.54,7.18,1.66,2.15,3.92,3.85,6.76,5.1,2.84,1.25,6.14,1.87,9.88,1.87s6.79-.52,9.15-1.56c2.36-1.04,4.12-2.43,5.3-4.16,1.18-1.73,1.77-3.57,1.77-5.51,0-2.91-.87-5.13-2.6-6.66-1.74-1.52-4.2-2.77-7.38-3.74-3.19-.97-7.07-1.94-11.65-2.91-4.72-1.11-9.43-2.36-14.14-3.74-4.72-1.38-8.98-3.19-12.79-5.41-3.82-2.22-6.86-5.03-9.15-8.42-2.29-3.4-3.43-7.66-3.43-12.79,0-6.24,1.66-11.82,4.99-16.74,3.33-4.92,8.18-8.84,14.56-11.75,6.38-2.91,14.01-4.37,22.88-4.37,12.62,0,22.6,2.88,29.95,8.63,7.35,5.76,11.72,13.56,13.1,23.4h-26.42c-.83-3.19-2.67-5.72-5.51-7.59-2.84-1.87-6.62-2.81-11.34-2.81s-8.56.9-11.13,2.7c-2.57,1.8-3.85,4.09-3.85,6.86,0,1.94.86,3.68,2.6,5.2,1.73,1.53,4.19,2.81,7.38,3.85,3.19,1.04,7,2.05,11.44,3.02,7.9,1.66,14.87,3.54,20.9,5.62,6.03,2.08,10.82,5.1,14.35,9.05,3.54,3.95,5.3,9.6,5.3,16.95.14,6.66-1.6,12.59-5.2,17.79-3.61,5.2-8.7,9.26-15.29,12.17-6.59,2.91-14.39,4.37-23.4,4.37Z"></path><path class="cls-1" d="M951.29,426.52c-7.35,0-13.76-1.14-19.24-3.43-5.48-2.29-9.74-6.1-12.79-11.44-3.05-5.34-4.58-12.65-4.58-21.95v-43.89h-17.89v-23.51h17.89l3.12-28.29h24.96v28.29h27.46v23.51h-27.46v44.31c0,4.72,1.04,7.98,3.12,9.78,2.08,1.8,5.62,2.7,10.61,2.7h13.31v23.92h-18.51Z"></path><path class="cls-1" d="M999.13,307.75c-5.13,0-9.29-1.49-12.48-4.47-3.19-2.98-4.78-6.76-4.78-11.34s1.59-8.35,4.78-11.34c3.19-2.98,7.35-4.47,12.48-4.47s9.32,1.49,12.58,4.47c3.26,2.98,4.89,6.76,4.89,11.34s-1.63,8.36-4.89,11.34c-3.26,2.98-7.46,4.47-12.58,4.47ZM984.99,426.52v-104.21h28.08v104.21h-28.08Z"></path><path class="cls-1" d="M1078.8,426.52c-7.35,0-13.76-1.14-19.24-3.43-5.48-2.29-9.74-6.1-12.79-11.44-3.05-5.34-4.58-12.65-4.58-21.95v-43.89h-17.89v-23.51h17.89l3.12-28.29h24.96v28.29h27.46v23.51h-27.46v44.31c0,4.72,1.04,7.98,3.12,9.78,2.08,1.8,5.62,2.7,10.61,2.7h13.31v23.92h-18.51Z"></path><path class="cls-1" d="M1150.77,429.02c-8.6,0-15.91-1.77-21.95-5.3-6.03-3.54-10.61-8.8-13.73-15.81-3.12-7-4.68-15.63-4.68-25.9v-59.7h27.87v57c0,8.46,1.77,14.91,5.3,19.35,3.54,4.44,8.98,6.66,16.33,6.66,4.71,0,8.94-1.11,12.69-3.33,3.74-2.22,6.66-5.41,8.74-9.57,2.08-4.16,3.12-9.22,3.12-15.18v-54.92h28.08v104.21h-24.75l-2.08-17.06c-3.19,5.82-7.77,10.54-13.73,14.14-5.96,3.6-13.04,5.41-21.22,5.41Z"></path><path class="cls-1" d="M1277.45,426.52c-7.35,0-13.76-1.14-19.24-3.43-5.48-2.29-9.74-6.1-12.79-11.44-3.05-5.34-4.58-12.65-4.58-21.95v-43.89h-17.89v-23.51h17.89l3.12-28.29h24.96v28.29h27.46v23.51h-27.46v44.31c0,4.72,1.04,7.98,3.12,9.78,2.08,1.8,5.62,2.7,10.61,2.7h13.31v23.92h-18.51Z"></path><path class="cls-1" d="M1357.32,429.02c-9.98,0-18.96-2.32-26.94-6.97-7.98-4.64-14.28-11.06-18.93-19.24-4.65-8.18-6.97-17.61-6.97-28.29s2.32-20.31,6.97-28.5c4.64-8.18,10.99-14.59,19.03-19.24,8.04-4.64,17.06-6.97,27.04-6.97s19,2.32,27.04,6.97c8.04,4.65,14.39,11.06,19.03,19.24,4.64,8.18,6.97,17.68,6.97,28.5s-2.36,20.11-7.07,28.29c-4.72,8.18-11.06,14.6-19.03,19.24-7.98,4.64-17.02,6.97-27.15,6.97ZM1357.32,404.68c4.58,0,8.7-1.11,12.38-3.33,3.67-2.22,6.62-5.58,8.84-10.09,2.22-4.5,3.33-10.09,3.33-16.75s-1.08-12.41-3.22-16.85c-2.15-4.44-5.06-7.8-8.74-10.09-3.68-2.29-7.8-3.43-12.38-3.43s-8.53,1.14-12.27,3.43c-3.74,2.29-6.73,5.65-8.94,10.09-2.22,4.44-3.33,10.06-3.33,16.85s1.11,12.24,3.33,16.75c2.22,4.51,5.16,7.87,8.84,10.09,3.67,2.22,7.73,3.33,12.17,3.33Z"></path><path class="cls-1" d="M1530.8,429.02c-14.56,0-27.11-3.15-37.65-9.46-10.54-6.31-18.65-15.11-24.34-26.42-5.69-11.3-8.53-24.37-8.53-39.21s2.84-27.94,8.53-39.31c5.68-11.37,13.8-20.25,24.34-26.63,10.54-6.38,23.09-9.57,37.65-9.57,17.61,0,32.07,4.37,43.37,13.1,11.3,8.74,18.34,21.08,21.11,37.03h-30.99c-1.66-7.76-5.38-13.83-11.13-18.2-5.76-4.37-13.28-6.55-22.57-6.55-8.74,0-16.22,2.05-22.47,6.14-6.24,4.09-10.99,9.85-14.25,17.26-3.26,7.42-4.89,16.33-4.89,26.73s1.63,19.14,4.89,26.63c3.26,7.49,8.01,13.24,14.25,17.27,6.24,4.02,13.73,6.03,22.47,6.03,9.29,0,16.78-2.04,22.47-6.14,5.68-4.09,9.43-9.81,11.23-17.16h30.99c-2.78,15.12-9.81,26.97-21.11,35.57-11.3,8.6-25.76,12.9-43.37,12.9Z"></path><path class="cls-1" d="M1644.37,429.02c-8.74,0-15.95-1.42-21.63-4.26-5.69-2.84-9.92-6.66-12.69-11.44-2.78-4.78-4.16-10.02-4.16-15.7,0-6.38,1.63-11.99,4.89-16.85,3.26-4.85,8.22-8.63,14.87-11.34,6.66-2.7,14.98-4.06,24.96-4.06h26c0-5.13-.7-9.36-2.08-12.69-1.39-3.33-3.57-5.82-6.55-7.49-2.98-1.66-6.83-2.5-11.54-2.5-5.27,0-9.78,1.18-13.52,3.54-3.74,2.36-6.03,5.9-6.86,10.61h-27.46c.83-7.63,3.36-14.18,7.59-19.66,4.23-5.48,9.84-9.74,16.85-12.79,7-3.05,14.87-4.58,23.61-4.58,9.84,0,18.37,1.66,25.59,4.99,7.21,3.33,12.76,8.11,16.64,14.35,3.88,6.24,5.82,13.94,5.82,23.09v64.28h-23.71l-3.12-16.02c-1.53,2.78-3.33,5.27-5.41,7.49-2.08,2.22-4.51,4.16-7.28,5.82-2.78,1.66-5.9,2.94-9.36,3.85-3.47.9-7.28,1.35-11.44,1.35ZM1651.03,407.39c3.6,0,6.83-.66,9.67-1.98,2.84-1.32,5.3-3.12,7.38-5.41s3.71-4.92,4.89-7.9c1.18-2.98,1.98-6.14,2.39-9.46v-.21h-21.43c-4.3,0-7.8.56-10.5,1.66-2.7,1.11-4.72,2.6-6.03,4.47-1.32,1.87-1.98,4.06-1.98,6.55,0,2.64.66,4.86,1.98,6.66,1.32,1.8,3.15,3.19,5.51,4.16,2.36.97,5.06,1.46,8.11,1.46Z"></path><path class="cls-1" d="M1767.1,426.52c-7.35,0-13.76-1.14-19.24-3.43-5.48-2.29-9.74-6.1-12.79-11.44-3.05-5.34-4.58-12.65-4.58-21.95v-43.89h-17.89v-23.51h17.89l3.12-28.29h24.96v28.29h27.46v23.51h-27.46v44.31c0,4.72,1.04,7.98,3.12,9.78,2.08,1.8,5.62,2.7,10.61,2.7h13.31v23.92h-18.51Z"></path><path class="cls-1" d="M1835.53,429.02c-8.74,0-15.95-1.42-21.63-4.26-5.69-2.84-9.92-6.66-12.69-11.44-2.78-4.78-4.16-10.02-4.16-15.7,0-6.38,1.63-11.99,4.89-16.85,3.26-4.85,8.22-8.63,14.87-11.34,6.66-2.7,14.98-4.06,24.96-4.06h26c0-5.13-.7-9.36-2.08-12.69-1.39-3.33-3.57-5.82-6.55-7.49-2.98-1.66-6.83-2.5-11.54-2.5-5.27,0-9.78,1.18-13.52,3.54-3.74,2.36-6.03,5.9-6.86,10.61h-27.46c.83-7.63,3.36-14.18,7.59-19.66,4.23-5.48,9.84-9.74,16.85-12.79,7-3.05,14.87-4.58,23.61-4.58,9.84,0,18.37,1.66,25.59,4.99,7.21,3.33,12.76,8.11,16.64,14.35,3.88,6.24,5.82,13.94,5.82,23.09v64.28h-23.71l-3.12-16.02c-1.53,2.78-3.33,5.27-5.41,7.49-2.08,2.22-4.51,4.16-7.28,5.82-2.78,1.66-5.9,2.94-9.36,3.85-3.47.9-7.28,1.35-11.44,1.35ZM1842.19,407.39c3.6,0,6.83-.66,9.67-1.98,2.84-1.32,5.3-3.12,7.38-5.41s3.71-4.92,4.89-7.9c1.18-2.98,1.98-6.14,2.39-9.46v-.21h-21.43c-4.3,0-7.8.56-10.5,1.66-2.7,1.11-4.72,2.6-6.03,4.47-1.32,1.87-1.98,4.06-1.98,6.55,0,2.64.66,4.86,1.98,6.66,1.32,1.8,3.15,3.19,5.51,4.16,2.36.97,5.06,1.46,8.11,1.46Z"></path><path class="cls-1" d="M1912.5,426.52v-149.77h28.08v149.77h-28.08Z"></path><path class="cls-1" d="M1973.23,307.75c-5.13,0-9.29-1.49-12.48-4.47-3.19-2.98-4.78-6.76-4.78-11.34s1.59-8.35,4.78-11.34c3.19-2.98,7.35-4.47,12.48-4.47s9.32,1.49,12.58,4.47c3.26,2.98,4.89,6.76,4.89,11.34s-1.63,8.36-4.89,11.34c-3.26,2.98-7.46,4.47-12.58,4.47ZM1959.09,426.52v-104.21h28.08v104.21h-28.08Z"></path><path class="cls-1" d="M1999.03,426.52v-22.47l52.42-58.45h-51.8v-23.3h84.04v22.67l-53.25,58.24h54.29v23.3h-85.7Z"></path><path class="cls-1" d="M2133.19,429.02c-8.74,0-15.95-1.42-21.63-4.26-5.69-2.84-9.92-6.66-12.69-11.44-2.78-4.78-4.16-10.02-4.16-15.7,0-6.38,1.63-11.99,4.89-16.85,3.26-4.85,8.22-8.63,14.87-11.34,6.66-2.7,14.98-4.06,24.96-4.06h26c0-5.13-.7-9.36-2.08-12.69-1.39-3.33-3.57-5.82-6.55-7.49-2.98-1.66-6.83-2.5-11.54-2.5-5.27,0-9.78,1.18-13.52,3.54-3.74,2.36-6.03,5.9-6.86,10.61h-27.46c.83-7.63,3.36-14.18,7.59-19.66,4.23-5.48,9.84-9.74,16.85-12.79,7-3.05,14.87-4.58,23.61-4.58,9.84,0,18.37,1.66,25.59,4.99,7.21,3.33,12.76,8.11,16.64,14.35,3.88,6.24,5.82,13.94,5.82,23.09v64.28h-23.71l-3.12-16.02c-1.53,2.78-3.33,5.27-5.41,7.49-2.08,2.22-4.51,4.16-7.28,5.82-2.78,1.66-5.9,2.94-9.36,3.85-3.47.9-7.28,1.35-11.44,1.35ZM2139.85,407.39c3.6,0,6.83-.66,9.67-1.98,2.84-1.32,5.3-3.12,7.38-5.41,2.08-2.29,3.71-4.92,4.89-7.9,1.18-2.98,1.98-6.14,2.39-9.46v-.21h-21.43c-4.3,0-7.8.56-10.5,1.66-2.7,1.11-4.72,2.6-6.03,4.47-1.32,1.87-1.98,4.06-1.98,6.55,0,2.64.66,4.86,1.98,6.66,1.32,1.8,3.15,3.19,5.51,4.16,2.36.97,5.06,1.46,8.11,1.46Z"></path></g></svg>