<svg xmlns="http://www.w3.org/2000/svg" id="Camada_1" viewBox="0 0 1834.36 705.15"><defs><style>      .cls-1 {        fill: #1fdb74;      }    </style></defs><g><path class="cls-1" d="M388.25,352.55c0,9.19-3.47,17.57-9.18,23.9-6.53,7.24-15.99,11.8-26.52,11.8-19.71,0-35.69-15.98-35.69-35.69s15.98-35.7,35.69-35.7,34.73,15.03,35.65,33.92c.03.59.04,1.18.04,1.78Z"></path><path class="cls-1" d="M548.51,470.05h-31.09c-4.85,0-9.17-3.05-10.8-7.62l-54.29-152.56h0s-.23-.65-.23-.65v.03s-8.13,22.82-8.13,22.82c-1.63,4.57-5.95,7.62-10.8,7.62h-31.09c-7.92,0-13.46-7.85-10.8-15.31l30.44-85.53c.81-2.28,2.98-3.81,5.4-3.81h49.98c2.43,0,4.59,1.53,5.4,3.81l76.83,215.88c2.66,7.47-2.88,15.31-10.8,15.31Z"></path><path class="cls-1" d="M455.73,365.65c7.38,0,12.87,6.87,11.17,14.05-7.66,32.38-28.72,59.58-57,75.43-30.28,16.96-59.41,14.91-60.73,14.88-63.42-1.79-114.27-53.83-114.13-117.71.14-64.89,53.24-117.24,118.13-117.24l34.87.03c6.33,0,11.47,5.13,11.47,11.47v29.29c0,6.33-5.13,11.47-11.47,11.47l-34.99-.03c-36.04,0-65.92,29.48-65.79,65.52.13,35.94,29.31,65.04,65.28,65.04,17.54,0,50.71-9.87,61.88-44.23,1.54-4.73,5.94-7.95,10.91-7.95h30.39Z"></path></g><g><path class="cls-1" d="M698.61,439.7c-16.6,0-30.9-3.59-42.91-10.79-12.01-7.19-21.26-17.23-27.74-30.11-6.48-12.88-9.72-27.78-9.72-44.69s3.24-31.85,9.72-44.81c6.48-12.96,15.73-23.08,27.74-30.35,12.01-7.27,26.32-10.91,42.91-10.91,20.07,0,36.55,4.98,49.43,14.94,12.88,9.96,20.9,24.03,24.06,42.2h-35.33c-1.9-8.85-6.13-15.77-12.68-20.75-6.56-4.98-15.14-7.47-25.72-7.47-9.96,0-18.49,2.33-25.61,6.99-7.11,4.66-12.53,11.22-16.24,19.68-3.72,8.46-5.57,18.61-5.57,30.47s1.86,21.81,5.57,30.35c3.71,8.53,9.13,15.1,16.24,19.68,7.11,4.59,15.65,6.88,25.61,6.88,10.59,0,19.12-2.33,25.61-6.99,6.48-4.66,10.75-11.18,12.8-19.56h35.33c-3.16,17.23-11.18,30.74-24.06,40.54-12.88,9.8-29.36,14.7-49.43,14.7Z"></path><path class="cls-1" d="M845.13,439.7c-12.01,0-22.64-2.57-31.89-7.71s-16.44-12.29-21.58-21.46c-5.14-9.17-7.71-19.83-7.71-32.01s2.53-23.23,7.59-32.72c5.06-9.48,12.21-16.95,21.46-22.41s19.95-8.18,32.13-8.18,22.2,2.57,31.06,7.71c8.85,5.14,15.77,12.13,20.75,20.98,4.98,8.85,7.47,18.89,7.47,30.11v5.22c0,1.9-.16,3.95-.47,6.16h-97.21v-19.68h65.2c-.32-7.43-2.96-13.36-7.94-17.78-4.98-4.42-11.18-6.64-18.61-6.64-5.53,0-10.59,1.23-15.17,3.68-4.59,2.45-8.18,6.16-10.79,11.14s-3.91,11.26-3.91,18.85v6.87c0,6.48,1.22,12.09,3.67,16.83,2.45,4.74,5.93,8.42,10.43,11.02,4.5,2.61,9.6,3.91,15.29,3.91s10.71-1.26,14.58-3.79c3.87-2.53,6.83-5.85,8.89-9.96h32.72c-2.22,7.43-5.97,14.15-11.26,20.15-5.3,6.01-11.7,10.79-19.2,14.34-7.51,3.56-16,5.33-25.49,5.33Z"></path><path class="cls-1" d="M919.81,436.86v-118.78h28.45l2.85,22.05c3-5.06,6.6-9.44,10.79-13.16,4.19-3.71,9.09-6.6,14.7-8.65,5.61-2.05,11.74-3.08,18.37-3.08v33.9h-9.96c-4.9,0-9.36.56-13.4,1.66-4.03,1.11-7.55,2.93-10.55,5.45-3,2.53-5.3,5.93-6.88,10.19-1.58,4.27-2.37,9.64-2.37,16.12v54.29h-32.01Z"></path><path class="cls-1" d="M1058.98,436.86c-8.38,0-15.69-1.3-21.93-3.91-6.25-2.61-11.11-6.95-14.58-13.04-3.48-6.08-5.22-14.42-5.22-25.01v-50.03h-20.39v-26.79h20.39l3.56-32.24h28.45v32.24h31.3v26.79h-31.3v50.5c0,5.38,1.19,9.09,3.56,11.14,2.37,2.06,6.4,3.08,12.09,3.08h15.17v27.27h-21.1Z"></path><path class="cls-1" d="M1113.51,301.48c-5.85,0-10.59-1.7-14.23-5.1-3.64-3.4-5.45-7.71-5.45-12.92s1.82-9.52,5.45-12.92c3.63-3.4,8.38-5.1,14.23-5.1s10.63,1.7,14.34,5.1c3.71,3.4,5.57,7.71,5.57,12.92s-1.86,9.52-5.57,12.92c-3.72,3.4-8.5,5.1-14.34,5.1ZM1097.39,436.86v-118.78h32.01v118.78h-32.01Z"></path><path class="cls-1" d="M1208.35,439.7c-12.01,0-22.72-2.06-32.13-6.16-9.41-4.11-16.8-10.11-22.17-18.02-5.38-7.9-8.22-17.46-8.54-28.69h33.9c.16,4.9,1.42,9.33,3.79,13.28,2.37,3.95,5.69,7.08,9.96,9.37,4.27,2.29,9.32,3.44,15.17,3.44,4.9,0,9.21-.83,12.92-2.49,3.71-1.66,6.64-3.99,8.77-6.99,2.13-3,3.2-6.56,3.2-10.67,0-4.74-1.19-8.73-3.56-11.97-2.37-3.24-5.61-5.96-9.72-8.18-4.11-2.21-8.77-4.23-13.99-6.05-5.22-1.82-10.75-3.67-16.6-5.57-13.12-4.27-23.08-9.96-29.87-17.07-6.8-7.11-10.19-16.52-10.19-28.21,0-9.96,2.37-18.49,7.11-25.61,4.74-7.11,11.38-12.57,19.92-16.36,8.54-3.79,18.26-5.69,29.16-5.69s21.1,1.94,29.64,5.81c8.54,3.87,15.25,9.45,20.15,16.71,4.9,7.27,7.51,15.81,7.82,25.61h-34.38c-.16-3.63-1.19-7.07-3.08-10.31-1.9-3.24-4.59-5.85-8.06-7.82-3.48-1.98-7.67-2.96-12.57-2.96-4.11-.16-7.82.47-11.14,1.9-3.32,1.42-5.97,3.52-7.94,6.28-1.98,2.77-2.96,6.2-2.96,10.31s.95,7.27,2.85,9.96c1.9,2.69,4.62,5.02,8.18,6.99,3.56,1.98,7.66,3.79,12.33,5.45,4.66,1.66,9.76,3.36,15.29,5.1,8.38,2.85,16,6.2,22.88,10.08,6.88,3.88,12.37,8.89,16.48,15.06,4.11,6.16,6.16,14.31,6.16,24.42,0,8.69-2.25,16.76-6.76,24.18-4.5,7.43-11.11,13.44-19.8,18.02-8.69,4.58-19.44,6.88-32.24,6.88Z"></path><path class="cls-1" d="M1323.1,439.7c-9.96,0-18.18-1.62-24.66-4.86-6.48-3.24-11.3-7.59-14.46-13.04-3.16-5.45-4.74-11.42-4.74-17.9,0-7.27,1.86-13.67,5.57-19.21,3.71-5.53,9.36-9.84,16.95-12.92,7.59-3.08,17.07-4.62,28.45-4.62h29.64c0-5.85-.79-10.67-2.37-14.46-1.58-3.79-4.07-6.64-7.47-8.54-3.4-1.9-7.79-2.85-13.16-2.85-6.01,0-11.14,1.34-15.41,4.03-4.27,2.69-6.88,6.72-7.82,12.09h-31.3c.95-8.69,3.83-16.16,8.65-22.41,4.82-6.24,11.22-11.1,19.2-14.58,7.98-3.47,16.95-5.22,26.91-5.22,11.22,0,20.94,1.9,29.16,5.69,8.22,3.79,14.54,9.25,18.97,16.36,4.42,7.11,6.64,15.89,6.64,26.32v73.26h-27.03l-3.56-18.26c-1.74,3.16-3.79,6.01-6.16,8.54-2.37,2.53-5.14,4.74-8.3,6.64-3.16,1.9-6.72,3.36-10.67,4.39-3.95,1.03-8.3,1.54-13.04,1.54ZM1330.69,415.05c4.11,0,7.78-.75,11.02-2.25,3.24-1.5,6.05-3.56,8.42-6.16,2.37-2.61,4.23-5.61,5.57-9.01,1.34-3.4,2.25-6.99,2.73-10.79v-.24h-24.42c-4.9,0-8.89.63-11.97,1.9-3.08,1.27-5.38,2.96-6.88,5.1-1.5,2.13-2.25,4.62-2.25,7.47,0,3,.75,5.53,2.25,7.59,1.5,2.06,3.59,3.64,6.28,4.74,2.69,1.11,5.77,1.66,9.25,1.66Z"></path><path class="cls-1" d="M1399.91,344.87v-26.79h73.5v26.79h-73.5ZM1416.04,436.86v-130.16c0-9.96,1.7-17.86,5.1-23.71,3.4-5.85,8.18-10.11,14.34-12.8,6.16-2.69,13.43-4.03,21.81-4.03h13.99v27.27h-9.01c-5.06,0-8.69.99-10.91,2.96-2.22,1.98-3.32,5.42-3.32,10.31v130.16h-32.01Z"></path><path class="cls-1" d="M1540.04,439.7c-12.01,0-22.64-2.57-31.89-7.71-9.25-5.13-16.44-12.29-21.58-21.46-5.14-9.17-7.71-19.83-7.71-32.01s2.53-23.23,7.59-32.72c5.06-9.48,12.21-16.95,21.46-22.41,9.25-5.45,19.95-8.18,32.13-8.18s22.2,2.57,31.06,7.71c8.85,5.14,15.77,12.13,20.75,20.98,4.98,8.85,7.47,18.89,7.47,30.11v5.22c0,1.9-.16,3.95-.47,6.16h-97.21v-19.68h65.2c-.32-7.43-2.96-13.36-7.94-17.78-4.98-4.42-11.18-6.64-18.61-6.64-5.53,0-10.59,1.23-15.17,3.68-4.59,2.45-8.18,6.16-10.79,11.14-2.61,4.98-3.91,11.26-3.91,18.85v6.87c0,6.48,1.22,12.09,3.67,16.83,2.45,4.74,5.93,8.42,10.43,11.02,4.5,2.61,9.6,3.91,15.29,3.91s10.71-1.26,14.58-3.79c3.87-2.53,6.84-5.85,8.89-9.96h32.72c-2.22,7.43-5.97,14.15-11.26,20.15-5.3,6.01-11.7,10.79-19.2,14.34-7.51,3.56-16,5.33-25.49,5.33Z"></path></g></svg>