<svg xmlns="http://www.w3.org/2000/svg" id="Camada_1" viewBox="0 0 2148.23 1110.68"><defs><style>      .cls-1 {        fill: #0091ff;      }    </style></defs><g><path class="cls-1" d="M632.7,555.18c0,19.96-7.54,38.16-19.94,51.9-14.19,15.73-34.73,25.62-57.59,25.62-42.81,0-77.52-34.71-77.52-77.52s34.71-77.52,77.52-77.52,75.42,32.64,77.43,73.67c.06,1.28.1,2.56.1,3.86Z"></path><path class="cls-1" d="M980.76,810.36h-67.52c-10.53,0-19.92-6.63-23.46-16.55l-117.91-331.32v-.02s-.5-1.38-.5-1.38l-.02.07-17.64,49.56c-3.53,9.92-12.93,16.55-23.46,16.55h-67.52c-17.21,0-29.23-17.04-23.46-33.25l66.1-185.74c1.77-4.96,6.46-8.28,11.73-8.28h108.54c5.27,0,9.96,3.31,11.73,8.28l166.86,468.83c5.77,16.21-6.25,33.25-23.46,33.25Z"></path><path class="cls-1" d="M779.25,583.63c16.02,0,27.95,14.92,24.26,30.51-16.63,70.32-62.36,129.4-123.78,163.81-65.76,36.84-129.02,32.39-131.88,32.31-137.73-3.88-248.15-116.9-247.85-255.64.31-140.93,115.62-254.61,256.55-254.61l75.72.06c13.75,0,24.9,11.15,24.9,24.9v63.61c0,13.75-11.15,24.9-24.9,24.9l-75.99-.06c-78.26,0-143.15,64.03-142.87,142.29.28,78.06,63.64,141.25,141.77,141.25,38.09,0,110.12-21.43,134.38-96.06,3.34-10.28,12.89-17.26,23.7-17.26h65.99Z"></path></g><g><path class="cls-1" d="M1157.11,436.9c-12.48,0-23.39-2.84-32.71-8.51-9.33-5.67-16.58-13.58-21.75-23.73-5.17-10.15-7.75-22.03-7.75-35.64s2.65-25.43,7.94-35.83c5.29-10.4,12.89-18.53,22.79-24.39,9.89-5.86,21.59-8.79,35.08-8.79,15.38,0,28.17,3.69,38.39,11.06,10.21,7.37,16.76,17.62,19.67,30.73h-25.53c-1.89-6.55-5.58-11.66-11.06-15.32-5.48-3.65-12.64-5.48-21.46-5.48s-16.64,1.92-23.07,5.77c-6.43,3.85-11.32,9.39-14.65,16.64-3.34,7.25-5.01,15.85-5.01,25.81s1.7,18.53,5.11,25.72c3.4,7.19,8.19,12.64,14.37,16.36,6.18,3.72,13.43,5.58,21.75,5.58,12.35,0,21.68-3.47,27.99-10.4,6.3-6.93,10.02-15.95,11.16-27.04h-34.23v-17.21h57.11v72.42h-20.99l-1.7-18.15c-2.9,4.29-6.27,7.97-10.12,11.06-3.85,3.09-8.29,5.42-13.33,7-5.04,1.57-11.03,2.36-17.96,2.36Z"></path><path class="cls-1" d="M1244.66,434.63v-94.73h20.23l2.08,17.77c2.27-4.16,5.07-7.72,8.41-10.68,3.34-2.96,7.25-5.26,11.72-6.9,4.47-1.64,9.48-2.46,15.03-2.46v24.01h-7.19c-3.91,0-7.56.47-10.97,1.42s-6.37,2.46-8.89,4.54c-2.52,2.08-4.44,4.95-5.77,8.6-1.32,3.66-1.99,8.2-1.99,13.61v44.81h-22.69Z"></path><path class="cls-1" d="M1354.14,436.9c-7.56,0-14.09-1.58-19.57-4.73-5.48-3.15-9.68-7.85-12.57-14.09-2.9-6.24-4.35-14.02-4.35-23.35v-54.84h22.69v52.57c0,8.32,1.73,14.62,5.2,18.91,3.47,4.29,8.67,6.43,15.6,6.43,4.66,0,8.79-1.1,12.39-3.31,3.59-2.2,6.43-5.39,8.51-9.55,2.08-4.16,3.12-9.2,3.12-15.13v-49.92h22.69v94.73h-20.04l-1.7-15.88c-2.9,5.55-7.09,9.96-12.57,13.24-5.48,3.28-11.95,4.92-19.38,4.92Z"></path><path class="cls-1" d="M1433.18,476.23v-136.33h20.23l2.46,13.8c2.01-2.77,4.44-5.39,7.28-7.85,2.84-2.46,6.27-4.44,10.31-5.96,4.03-1.51,8.76-2.27,14.18-2.27,8.95,0,16.86,2.17,23.73,6.52,6.87,4.35,12.29,10.28,16.26,17.77,3.97,7.5,5.96,16.04,5.96,25.62s-2.02,17.9-6.05,25.34c-4.04,7.44-9.49,13.3-16.36,17.59-6.87,4.28-14.72,6.43-23.54,6.43-7.19,0-13.49-1.36-18.91-4.07-5.42-2.71-9.71-6.59-12.86-11.63v55.03h-22.69ZM1482.92,417.24c5.29,0,10.02-1.26,14.18-3.78,4.16-2.52,7.44-6.02,9.83-10.49,2.39-4.47,3.59-9.67,3.59-15.6s-1.2-11.12-3.59-15.6c-2.4-4.47-5.67-7.97-9.83-10.49-4.16-2.52-8.89-3.78-14.18-3.78s-10.21,1.26-14.37,3.78c-4.16,2.52-7.37,6.02-9.64,10.49-2.27,4.48-3.4,9.68-3.4,15.6s1.13,10.97,3.4,15.51c2.27,4.54,5.48,8.07,9.64,10.59,4.16,2.52,8.95,3.78,14.37,3.78Z"></path><path class="cls-1" d="M1599.77,436.9c-8.95,0-17.05-2.08-24.3-6.24-7.25-4.16-12.95-9.99-17.11-17.49-4.16-7.5-6.24-16.1-6.24-25.81s2.11-18.5,6.33-26c4.22-7.5,9.96-13.33,17.21-17.49,7.25-4.16,15.35-6.24,24.3-6.24s17.4,2.08,24.58,6.24c7.19,4.16,12.86,9.96,17.02,17.4,4.16,7.44,6.24,16.14,6.24,26.09s-2.11,18.47-6.33,25.91c-4.22,7.44-9.93,13.24-17.11,17.4-7.19,4.16-15.38,6.24-24.58,6.24ZM1599.96,417.43c4.54,0,8.67-1.13,12.39-3.4,3.72-2.27,6.71-5.64,8.98-10.12,2.27-4.47,3.4-9.99,3.4-16.55s-1.13-12.26-3.4-16.73c-2.27-4.47-5.26-7.81-8.98-10.02-3.72-2.2-7.79-3.31-12.2-3.31s-8.51,1.1-12.29,3.31c-3.78,2.21-6.81,5.55-9.08,10.02-2.27,4.48-3.4,10.05-3.4,16.73s1.13,12.07,3.4,16.55c2.27,4.48,5.26,7.85,8.98,10.12,3.72,2.27,7.78,3.4,12.2,3.4Z"></path><path class="cls-1" d="M1158.63,623.79c-13.24,0-24.61-2.87-34.13-8.6-9.52-5.73-16.83-13.74-21.93-24.01-5.11-10.27-7.66-22.15-7.66-35.64s2.55-25.56,7.66-35.83c5.11-10.27,12.41-18.31,21.93-24.11,9.52-5.8,20.89-8.7,34.13-8.7,15.76,0,28.65,3.88,38.67,11.63,10.02,7.75,16.29,18.69,18.81,32.81h-24.96c-1.77-7.44-5.36-13.3-10.78-17.59-5.42-4.28-12.73-6.43-21.93-6.43-8.32,0-15.51,1.92-21.56,5.77-6.05,3.85-10.72,9.39-13.99,16.64-3.28,7.25-4.92,15.85-4.92,25.81s1.64,18.5,4.92,25.62c3.28,7.12,7.94,12.61,13.99,16.45,6.05,3.85,13.24,5.77,21.56,5.77,9.2,0,16.51-1.99,21.93-5.96,5.42-3.97,9.01-9.48,10.78-16.55h24.96c-2.52,13.36-8.79,23.86-18.81,31.48-10.02,7.63-22.91,11.44-38.67,11.44Z"></path><path class="cls-1" d="M1249.77,511.47c-4.16,0-7.6-1.29-10.31-3.88-2.71-2.58-4.07-5.77-4.07-9.55s1.35-7.09,4.07-9.55c2.71-2.46,6.15-3.69,10.31-3.69s7.59,1.23,10.31,3.69c2.71,2.46,4.07,5.64,4.07,9.55s-1.36,6.97-4.07,9.55c-2.71,2.59-6.15,3.88-10.31,3.88ZM1238.42,621.52v-94.73h22.69v94.73h-22.69Z"></path><path class="cls-1" d="M1287.2,663.12v-136.33h20.23l2.46,13.8c2.01-2.77,4.44-5.39,7.28-7.85,2.84-2.46,6.27-4.44,10.31-5.96,4.03-1.51,8.76-2.27,14.18-2.27,8.95,0,16.86,2.17,23.73,6.52,6.87,4.35,12.29,10.28,16.26,17.77,3.97,7.5,5.96,16.04,5.96,25.62s-2.02,17.9-6.05,25.34c-4.04,7.44-9.49,13.3-16.36,17.59-6.87,4.28-14.72,6.43-23.54,6.43-7.19,0-13.49-1.36-18.91-4.07-5.42-2.71-9.71-6.59-12.86-11.63v55.03h-22.69ZM1336.93,604.13c5.29,0,10.02-1.26,14.18-3.78,4.16-2.52,7.44-6.02,9.83-10.49,2.39-4.47,3.59-9.67,3.59-15.6s-1.2-11.12-3.59-15.6c-2.4-4.47-5.67-7.97-9.83-10.49-4.16-2.52-8.89-3.78-14.18-3.78s-10.21,1.26-14.37,3.78c-4.16,2.52-7.37,6.02-9.64,10.49-2.27,4.48-3.4,9.68-3.4,15.6s1.13,10.97,3.4,15.51c2.27,4.54,5.48,8.07,9.64,10.59,4.16,2.52,8.95,3.78,14.37,3.78Z"></path><path class="cls-1" d="M1409.54,621.52v-94.73h20.23l2.08,17.77c2.27-4.16,5.07-7.72,8.41-10.68,3.34-2.96,7.25-5.26,11.72-6.9,4.47-1.64,9.48-2.46,15.03-2.46v24.01h-7.19c-3.91,0-7.56.47-10.97,1.42-3.4.95-6.37,2.46-8.89,4.54-2.52,2.08-4.44,4.95-5.77,8.6-1.32,3.66-1.99,8.2-1.99,13.61v44.81h-22.69Z"></path><path class="cls-1" d="M1496.33,511.47c-4.16,0-7.6-1.29-10.31-3.88-2.71-2.58-4.07-5.77-4.07-9.55s1.35-7.09,4.07-9.55c2.71-2.46,6.15-3.69,10.31-3.69s7.59,1.23,10.31,3.69c2.71,2.46,4.07,5.64,4.07,9.55s-1.36,6.97-4.07,9.55c-2.71,2.59-6.15,3.88-10.31,3.88ZM1484.99,621.52v-94.73h22.69v94.73h-22.69Z"></path><path class="cls-1" d="M1565.54,623.79c-7.82,0-14.31-1.29-19.48-3.88-5.17-2.58-9.01-6.08-11.53-10.49-2.52-4.41-3.78-9.2-3.78-14.37,0-6.05,1.54-11.25,4.63-15.6,3.09-4.35,7.66-7.75,13.71-10.21,6.05-2.46,13.49-3.69,22.31-3.69h24.01c0-5.04-.69-9.2-2.08-12.48-1.39-3.28-3.56-5.73-6.52-7.37-2.96-1.64-6.65-2.46-11.06-2.46-5.29,0-9.8,1.2-13.52,3.59-3.72,2.4-5.96,5.93-6.71,10.59h-22.31c.63-6.81,2.9-12.64,6.81-17.49,3.91-4.85,8.98-8.63,15.22-11.35,6.24-2.71,13.08-4.07,20.52-4.07,8.95,0,16.57,1.55,22.88,4.63,6.3,3.09,11.12,7.5,14.47,13.24,3.34,5.74,5.01,12.64,5.01,20.71v58.43h-19.29l-2.27-15.13c-1.26,2.4-2.87,4.67-4.82,6.81-1.96,2.15-4.19,4-6.71,5.58-2.52,1.58-5.39,2.8-8.6,3.69-3.21.88-6.84,1.32-10.87,1.32ZM1570.64,605.83c3.65,0,6.93-.66,9.83-1.99,2.9-1.32,5.36-3.18,7.37-5.58,2.02-2.39,3.59-5.13,4.73-8.23,1.13-3.09,1.89-6.27,2.27-9.55v-.38h-20.99c-4.54,0-8.23.57-11.06,1.7-2.84,1.13-4.92,2.68-6.24,4.63-1.32,1.96-1.99,4.25-1.99,6.9s.66,4.92,1.99,6.81c1.32,1.89,3.18,3.31,5.58,4.25,2.39.95,5.23,1.42,8.51,1.42Z"></path><path class="cls-1" d="M1641.93,621.52v-94.73h20.04l1.51,16.07c3.03-5.55,7.28-9.99,12.76-13.33,5.48-3.34,11.88-5.01,19.19-5.01,7.69,0,14.24,1.61,19.67,4.82,5.42,3.21,9.61,7.94,12.57,14.18,2.96,6.24,4.44,14.03,4.44,23.35v54.65h-22.69v-52.57c0-8.07-1.73-14.28-5.2-18.63-3.47-4.35-8.73-6.52-15.79-6.52-4.54,0-8.64,1.1-12.29,3.31-3.66,2.21-6.49,5.36-8.51,9.45-2.02,4.1-3.03,9.11-3.03,15.03v49.92h-22.69Z"></path><path class="cls-1" d="M1800.2,623.79c-8.95,0-17.05-2.08-24.3-6.24-7.25-4.16-12.95-9.99-17.11-17.49-4.16-7.5-6.24-16.1-6.24-25.81s2.11-18.5,6.33-26c4.22-7.5,9.96-13.33,17.21-17.49,7.25-4.16,15.35-6.24,24.3-6.24s17.4,2.08,24.58,6.24c7.19,4.16,12.86,9.96,17.02,17.4,4.16,7.44,6.24,16.14,6.24,26.09s-2.11,18.47-6.33,25.91c-4.22,7.44-9.93,13.24-17.11,17.4-7.19,4.16-15.38,6.24-24.58,6.24ZM1800.39,604.32c4.54,0,8.67-1.13,12.39-3.4,3.72-2.27,6.71-5.64,8.98-10.12,2.27-4.47,3.4-9.99,3.4-16.55s-1.13-12.26-3.4-16.73c-2.27-4.47-5.26-7.81-8.98-10.02-3.72-2.2-7.79-3.31-12.2-3.31s-8.51,1.1-12.29,3.31c-3.78,2.21-6.81,5.55-9.08,10.02-2.27,4.48-3.4,10.05-3.4,16.73s1.13,12.07,3.4,16.55c2.27,4.48,5.26,7.85,8.98,10.12,3.72,2.27,7.78,3.4,12.2,3.4Z"></path><path class="cls-1" d="M1090.93,808.41l48.41-132.36h25.34l48.41,132.36h-24.01l-37.25-105.89-37.25,105.89h-23.64ZM1112.49,777.21l6.05-17.96h65.24l6.05,17.96h-77.34Z"></path><path class="cls-1" d="M1230.48,850.01l23.26-52.19h-5.67l-38.01-84.15h24.58l28.55,64.29,26.85-64.29h24.01l-59.75,136.33h-23.83Z"></path><path class="cls-1" d="M1355.09,810.68c-7.82,0-14.31-1.29-19.48-3.88-5.17-2.58-9.01-6.08-11.53-10.49-2.52-4.41-3.78-9.2-3.78-14.37,0-6.05,1.54-11.25,4.63-15.6,3.09-4.35,7.66-7.75,13.71-10.21,6.05-2.46,13.49-3.69,22.31-3.69h24.01c0-5.04-.69-9.2-2.08-12.48-1.39-3.28-3.56-5.73-6.52-7.37-2.96-1.64-6.65-2.46-11.06-2.46-5.29,0-9.8,1.2-13.52,3.59-3.72,2.4-5.96,5.93-6.71,10.59h-22.31c.63-6.81,2.9-12.64,6.81-17.49,3.91-4.85,8.98-8.63,15.22-11.35,6.24-2.71,13.08-4.07,20.52-4.07,8.95,0,16.57,1.55,22.88,4.63,6.3,3.09,11.12,7.5,14.47,13.24,3.34,5.74,5.01,12.64,5.01,20.71v58.43h-19.29l-2.27-15.13c-1.26,2.4-2.87,4.67-4.82,6.81-1.96,2.15-4.19,4-6.71,5.58-2.52,1.58-5.39,2.8-8.6,3.69-3.21.88-6.84,1.32-10.87,1.32ZM1360.2,792.72c3.65,0,6.93-.66,9.83-1.99,2.9-1.32,5.36-3.18,7.37-5.58,2.01-2.39,3.59-5.13,4.73-8.23,1.13-3.09,1.89-6.27,2.27-9.55v-.38h-20.99c-4.54,0-8.23.57-11.06,1.7-2.84,1.13-4.92,2.68-6.24,4.63-1.32,1.96-1.99,4.25-1.99,6.9s.66,4.92,1.99,6.81c1.32,1.89,3.18,3.31,5.58,4.25,2.39.95,5.23,1.42,8.51,1.42Z"></path><path class="cls-1" d="M1431.48,808.41v-136.15h22.69v136.15h-22.69Z"></path><path class="cls-1" d="M1511.09,810.68c-7.82,0-14.31-1.29-19.48-3.88-5.17-2.58-9.01-6.08-11.53-10.49-2.52-4.41-3.78-9.2-3.78-14.37,0-6.05,1.54-11.25,4.63-15.6,3.09-4.35,7.66-7.75,13.71-10.21,6.05-2.46,13.49-3.69,22.31-3.69h24.01c0-5.04-.69-9.2-2.08-12.48-1.39-3.28-3.56-5.73-6.52-7.37-2.96-1.64-6.65-2.46-11.06-2.46-5.29,0-9.8,1.2-13.52,3.59-3.72,2.4-5.96,5.93-6.71,10.59h-22.31c.63-6.81,2.9-12.64,6.81-17.49,3.91-4.85,8.98-8.63,15.22-11.35,6.24-2.71,13.08-4.07,20.52-4.07,8.95,0,16.57,1.55,22.88,4.63,6.3,3.09,11.12,7.5,14.47,13.24,3.34,5.74,5.01,12.64,5.01,20.71v58.43h-19.29l-2.27-15.13c-1.26,2.4-2.87,4.67-4.82,6.81-1.96,2.15-4.19,4-6.71,5.58-2.52,1.58-5.39,2.8-8.6,3.69-3.21.88-6.84,1.32-10.87,1.32ZM1516.19,792.72c3.65,0,6.93-.66,9.83-1.99,2.9-1.32,5.36-3.18,7.37-5.58,2.02-2.39,3.59-5.13,4.73-8.23,1.13-3.09,1.89-6.27,2.27-9.55v-.38h-20.99c-4.54,0-8.23.57-11.06,1.7-2.84,1.13-4.92,2.68-6.24,4.63-1.32,1.96-1.99,4.25-1.99,6.9s.66,4.92,1.99,6.81c1.32,1.89,3.18,3.31,5.58,4.25,2.39.95,5.23,1.42,8.51,1.42Z"></path></g></svg>