<svg xmlns="http://www.w3.org/2000/svg" id="Camada_1" viewBox="0 0 1548.87 705.15"><defs><style>      .cls-1 {        fill: #1500ff;      }    </style></defs><g><path class="cls-1" d="M388.25,352.55c0,9.19-3.47,17.57-9.18,23.9-6.53,7.24-15.99,11.8-26.52,11.8-19.71,0-35.69-15.98-35.69-35.69s15.98-35.7,35.69-35.7,34.73,15.03,35.65,33.92c.03.59.04,1.18.04,1.78Z"></path><path class="cls-1" d="M548.51,470.05h-31.09c-4.85,0-9.17-3.05-10.8-7.62l-54.29-152.56h0s-.23-.65-.23-.65v.03s-8.13,22.82-8.13,22.82c-1.63,4.57-5.95,7.62-10.8,7.62h-31.09c-7.92,0-13.46-7.85-10.8-15.31l30.44-85.53c.81-2.28,2.98-3.81,5.4-3.81h49.98c2.43,0,4.59,1.53,5.4,3.81l76.83,215.88c2.66,7.47-2.88,15.31-10.8,15.31Z"></path><path class="cls-1" d="M455.73,365.65c7.38,0,12.87,6.87,11.17,14.05-7.66,32.38-28.72,59.58-57,75.43-30.28,16.96-59.41,14.91-60.73,14.88-63.42-1.79-114.27-53.83-114.13-117.71.14-64.89,53.24-117.24,118.13-117.24l34.87.03c6.33,0,11.47,5.13,11.47,11.47v29.29c0,6.33-5.13,11.47-11.47,11.47l-34.99-.03c-36.04,0-65.92,29.48-65.79,65.52.13,35.94,29.31,65.04,65.28,65.04,17.54,0,50.71-9.87,61.88-44.23,1.54-4.73,5.94-7.95,10.91-7.95h30.39Z"></path></g><g><path class="cls-1" d="M621.71,404.88v-145.58h94.83v22.67h-66.76v38.89h53.66v22.04h-53.66v61.97h-28.08Z"></path><path class="cls-1" d="M766.25,407.37c-8.6,0-15.91-1.77-21.94-5.3-6.03-3.53-10.61-8.8-13.73-15.8-3.12-7-4.68-15.63-4.68-25.89v-59.69h27.87v56.98c0,8.46,1.77,14.91,5.3,19.34,3.54,4.44,8.98,6.65,16.33,6.65,4.71,0,8.94-1.11,12.69-3.33,3.74-2.22,6.66-5.41,8.73-9.57,2.08-4.16,3.12-9.22,3.12-15.18v-54.9h28.08v104.19h-24.75l-2.08-17.05c-3.19,5.82-7.77,10.54-13.73,14.14-5.96,3.6-13.03,5.41-21.21,5.41Z"></path><path class="cls-1" d="M845.9,404.88v-104.19h24.54l2.08,17.26c3.33-5.96,7.94-10.74,13.83-14.35,5.89-3.6,13-5.41,21.32-5.41s15.87,1.84,21.84,5.51c5.96,3.68,10.5,9.01,13.62,16.01,3.12,7,4.68,15.57,4.68,25.68v59.48h-27.87v-56.78c0-8.46-1.77-14.94-5.3-19.44-3.54-4.5-8.98-6.76-16.33-6.76-4.72,0-8.91,1.11-12.58,3.33-3.68,2.22-6.55,5.41-8.63,9.57s-3.12,9.22-3.12,15.18v54.9h-28.08Z"></path><path class="cls-1" d="M1011.23,407.37c-9.57,0-18.13-2.36-25.68-7.07-7.56-4.71-13.52-11.19-17.89-19.44-4.37-8.25-6.55-17.57-6.55-27.97s2.18-19.93,6.55-28.18c4.37-8.25,10.4-14.73,18.09-19.44,7.69-4.71,16.33-7.07,25.89-7.07,7.62,0,14.28,1.42,19.96,4.26,5.68,2.84,10.26,6.76,13.73,11.75v-59.06h28.08v149.74h-24.96l-3.12-14.35c-2.22,2.91-4.86,5.69-7.9,8.32-3.05,2.64-6.73,4.71-11.02,6.24-4.3,1.52-9.36,2.29-15.18,2.29ZM1017.88,382.83c5.54,0,10.43-1.28,14.66-3.85,4.23-2.56,7.52-6.1,9.88-10.61,2.36-4.5,3.54-9.67,3.54-15.49s-1.18-11.19-3.54-15.7c-2.36-4.5-5.69-8.04-9.98-10.61-4.3-2.56-9.22-3.85-14.77-3.85s-10.05,1.28-14.35,3.85c-4.3,2.57-7.66,6.1-10.09,10.61-2.43,4.51-3.64,9.67-3.64,15.49s1.21,11.02,3.64,15.6c2.42,4.57,5.79,8.15,10.09,10.71,4.3,2.57,9.15,3.85,14.56,3.85Z"></path><path class="cls-1" d="M1106.06,286.13c-5.13,0-9.29-1.49-12.48-4.47-3.19-2.98-4.78-6.76-4.78-11.33s1.59-8.35,4.78-11.33c3.19-2.98,7.35-4.47,12.48-4.47s9.32,1.49,12.58,4.47c3.26,2.98,4.89,6.76,4.89,11.33s-1.63,8.35-4.89,11.33c-3.26,2.98-7.45,4.47-12.58,4.47ZM1091.92,404.88v-104.19h28.08v104.19h-28.08Z"></path><path class="cls-1" d="M1129.14,324.19v-23.5h64.47v23.5h-64.47ZM1143.29,404.88v-114.18c0-8.73,1.49-15.67,4.47-20.8,2.98-5.13,7.18-8.87,12.58-11.23,5.41-2.36,11.78-3.53,19.13-3.53h12.27v23.92h-7.9c-4.44,0-7.63.87-9.57,2.6-1.94,1.74-2.91,4.75-2.91,9.05v114.18h-28.08Z"></path><path class="cls-1" d="M1218.99,450.63l25.58-57.4h-6.24l-42.01-92.55h30.36l30.16,66.97,27.04-66.97h29.95l-65.09,149.95h-29.74Z"></path></g></svg>