<svg xmlns="http://www.w3.org/2000/svg" id="Camada_1" viewBox="0 0 2040.15 705.15"><defs><style>      .cls-1 {        fill: #5200bc;      }    </style></defs><g><path class="cls-1" d="M388.25,352.55c0,9.19-3.47,17.57-9.18,23.9-6.53,7.24-15.99,11.8-26.52,11.8-19.71,0-35.69-15.98-35.69-35.69s15.98-35.7,35.69-35.7,34.73,15.03,35.65,33.92c.03.59.04,1.18.04,1.78Z"></path><path class="cls-1" d="M548.51,470.05h-31.09c-4.85,0-9.17-3.05-10.8-7.62l-54.29-152.56h0s-.23-.65-.23-.65v.03s-8.13,22.82-8.13,22.82c-1.63,4.57-5.95,7.62-10.8,7.62h-31.09c-7.92,0-13.46-7.85-10.8-15.31l30.44-85.53c.81-2.28,2.98-3.81,5.4-3.81h49.98c2.43,0,4.59,1.53,5.4,3.81l76.83,215.88c2.66,7.47-2.88,15.31-10.8,15.31Z"></path><path class="cls-1" d="M455.73,365.65c7.38,0,12.87,6.87,11.17,14.05-7.66,32.38-28.72,59.58-57,75.43-30.28,16.96-59.41,14.91-60.73,14.88-63.42-1.79-114.27-53.83-114.13-117.71.14-64.89,53.24-117.24,118.13-117.24l34.87.03c6.33,0,11.47,5.13,11.47,11.47v29.29c0,6.33-5.13,11.47-11.47,11.47l-34.99-.03c-36.04,0-65.92,29.48-65.79,65.52.13,35.94,29.31,65.04,65.28,65.04,17.54,0,50.71-9.87,61.88-44.23,1.54-4.73,5.94-7.95,10.91-7.95h30.39Z"></path></g><g><path class="cls-1" d="M671.48,406.13c-9.43,0-18.09-1.74-26-5.2-7.9-3.46-14.21-8.73-18.93-15.81-4.71-7.07-7.21-16.01-7.49-26.83h27.45c.14,4.58,1.18,8.7,3.12,12.37,1.94,3.68,4.78,6.59,8.53,8.73,3.74,2.15,8.18,3.22,13.31,3.22,4.85,0,9.01-.97,12.48-2.91,3.46-1.94,6.1-4.5,7.9-7.69,1.8-3.19,2.7-6.86,2.7-11.02,0-4.85-1.22-8.91-3.64-12.17-2.43-3.26-5.75-5.75-9.98-7.49-4.23-1.73-9.05-2.6-14.45-2.6h-10.81v-23.08h10.81c6.79,0,12.51-1.56,17.16-4.68,4.64-3.12,6.97-7.87,6.97-14.25,0-5.27-1.74-9.5-5.2-12.69-3.47-3.19-8.18-4.78-14.14-4.78-6.65,0-11.82,1.94-15.49,5.82-3.68,3.88-5.72,8.67-6.13,14.35h-27.45c.42-9.15,2.7-17.02,6.86-23.6,4.16-6.58,9.88-11.61,17.16-15.08,7.28-3.46,15.63-5.2,25.06-5.2,10.12,0,18.65,1.77,25.58,5.3,6.93,3.54,12.2,8.29,15.81,14.25,3.6,5.96,5.41,12.41,5.41,19.34,0,5.69-1.08,10.71-3.22,15.08-2.15,4.37-4.99,8.01-8.53,10.92-3.54,2.91-7.45,4.99-11.75,6.24,5.41,1.11,10.15,3.26,14.25,6.45,4.09,3.19,7.31,7.21,9.67,12.06,2.36,4.85,3.54,10.47,3.54,16.85,0,7.9-1.94,15.22-5.82,21.94-3.88,6.73-9.6,12.1-17.16,16.12-7.56,4.02-16.74,6.03-27.56,6.03Z"></path><path class="cls-1" d="M781.5,406.13c-9.43,0-17.68-1.53-24.75-4.58s-12.65-7.24-16.74-12.58c-4.09-5.34-6.48-11.47-7.18-18.4h28.08c.69,2.64,1.87,5.03,3.54,7.17,1.66,2.15,3.92,3.85,6.76,5.1,2.84,1.25,6.14,1.87,9.88,1.87s6.79-.52,9.15-1.56c2.36-1.04,4.12-2.42,5.3-4.16,1.18-1.73,1.77-3.57,1.77-5.51,0-2.91-.87-5.13-2.6-6.65-1.74-1.52-4.2-2.77-7.38-3.74-3.19-.97-7.07-1.94-11.65-2.91-4.71-1.11-9.43-2.36-14.14-3.74-4.72-1.38-8.98-3.19-12.79-5.41-3.81-2.22-6.86-5.02-9.15-8.42-2.29-3.4-3.43-7.66-3.43-12.79,0-6.24,1.66-11.82,4.99-16.74,3.33-4.92,8.18-8.84,14.56-11.75,6.38-2.91,14-4.37,22.88-4.37,12.61,0,22.6,2.88,29.95,8.63,7.35,5.75,11.71,13.55,13.1,23.4h-26.41c-.83-3.19-2.67-5.72-5.51-7.59-2.84-1.87-6.62-2.81-11.33-2.81s-8.56.9-11.13,2.7c-2.57,1.8-3.85,4.09-3.85,6.86,0,1.94.86,3.68,2.6,5.2,1.73,1.53,4.19,2.81,7.38,3.85,3.19,1.04,7,2.05,11.44,3.02,7.9,1.66,14.87,3.54,20.9,5.62,6.03,2.08,10.81,5.1,14.35,9.05,3.54,3.95,5.3,9.6,5.3,16.95.14,6.66-1.6,12.58-5.2,17.78-3.61,5.2-8.7,9.25-15.29,12.17-6.59,2.91-14.39,4.37-23.4,4.37Z"></path><path class="cls-1" d="M879.65,403.63v-145.58h33.48l44.92,90.67,44.3-90.67h33.48v145.58h-28.08v-97.95l-38.89,77.36h-22.25l-38.89-77.36v97.95h-28.08Z"></path><path class="cls-1" d="M1089.7,406.13c-8.73,0-15.95-1.42-21.63-4.26-5.69-2.84-9.91-6.65-12.69-11.44-2.77-4.78-4.16-10.02-4.16-15.7,0-6.38,1.63-11.99,4.89-16.85,3.26-4.85,8.22-8.63,14.87-11.33s14.97-4.06,24.96-4.06h26c0-5.13-.7-9.36-2.08-12.69-1.39-3.33-3.57-5.82-6.55-7.49-2.98-1.66-6.83-2.5-11.54-2.5-5.27,0-9.77,1.18-13.52,3.54-3.74,2.36-6.03,5.89-6.86,10.61h-27.45c.83-7.62,3.36-14.17,7.59-19.65,4.23-5.48,9.84-9.74,16.85-12.79,7-3.05,14.87-4.58,23.6-4.58,9.84,0,18.37,1.66,25.58,4.99,7.21,3.33,12.75,8.11,16.64,14.35,3.88,6.24,5.82,13.93,5.82,23.08v64.26h-23.71l-3.12-16.01c-1.53,2.78-3.33,5.27-5.41,7.49-2.08,2.22-4.51,4.16-7.28,5.82-2.78,1.66-5.89,2.94-9.36,3.85-3.47.9-7.28,1.35-11.44,1.35ZM1096.36,384.5c3.6,0,6.83-.66,9.67-1.98,2.84-1.32,5.3-3.12,7.38-5.41,2.08-2.29,3.71-4.92,4.89-7.9,1.18-2.98,1.98-6.13,2.39-9.46v-.21h-21.42c-4.3,0-7.8.56-10.5,1.66-2.7,1.11-4.71,2.6-6.03,4.47-1.32,1.87-1.98,4.06-1.98,6.55,0,2.64.66,4.85,1.98,6.65,1.32,1.8,3.15,3.19,5.51,4.16,2.36.97,5.06,1.46,8.11,1.46Z"></path><path class="cls-1" d="M1166.65,403.63v-104.19h24.96l2.5,19.34c2.63-4.44,5.79-8.28,9.46-11.54,3.67-3.26,7.97-5.79,12.89-7.59,4.92-1.8,10.29-2.7,16.12-2.7v29.74h-8.73c-4.3,0-8.21.49-11.75,1.46-3.54.97-6.62,2.57-9.25,4.78-2.64,2.22-4.65,5.2-6.03,8.94-1.39,3.74-2.08,8.46-2.08,14.14v47.62h-28.08Z"></path><path class="cls-1" d="M1241.72,403.63v-149.74h28.08v149.74h-28.08ZM1310.35,403.63l-44.71-57.19,39.93-47h33.27l-51.78,58.85v-22.25l58.23,67.59h-34.94Z"></path><path class="cls-1" d="M1394.16,406.13c-10.54,0-19.86-2.26-27.97-6.76-8.11-4.5-14.42-10.78-18.92-18.82-4.51-8.04-6.76-17.4-6.76-28.08s2.22-20.38,6.65-28.7c4.44-8.32,10.71-14.87,18.82-19.65,8.11-4.78,17.5-7.18,28.18-7.18s19.48,2.26,27.24,6.76c7.76,4.51,13.83,10.64,18.2,18.4,4.37,7.77,6.55,16.57,6.55,26.41v4.58c0,1.66-.14,3.47-.42,5.41h-85.27v-17.26h57.19c-.28-6.52-2.6-11.71-6.97-15.6-4.37-3.88-9.81-5.82-16.33-5.82-4.85,0-9.29,1.08-13.31,3.22-4.02,2.15-7.18,5.41-9.46,9.77-2.29,4.37-3.43,9.88-3.43,16.53v6.03c0,5.69,1.07,10.61,3.22,14.77,2.15,4.16,5.2,7.38,9.15,9.67s8.42,3.43,13.41,3.43,9.39-1.11,12.79-3.33c3.4-2.22,6-5.13,7.8-8.73h28.7c-1.94,6.52-5.24,12.41-9.88,17.68-4.65,5.27-10.26,9.46-16.85,12.58-6.59,3.12-14.04,4.68-22.36,4.68Z"></path><path class="cls-1" d="M1505.22,403.63c-7.35,0-13.76-1.14-19.24-3.43-5.48-2.29-9.74-6.1-12.79-11.44-3.05-5.34-4.58-12.65-4.58-21.94v-43.88h-17.89v-23.5h17.89l3.12-28.28h24.96v28.28h27.45v23.5h-27.45v44.3c0,4.71,1.04,7.97,3.12,9.77,2.08,1.8,5.62,2.7,10.61,2.7h13.31v23.92h-18.51Z"></path><path class="cls-1" d="M1553.05,284.88c-5.13,0-9.29-1.49-12.48-4.47-3.19-2.98-4.78-6.76-4.78-11.33s1.59-8.35,4.78-11.33c3.19-2.98,7.35-4.47,12.48-4.47s9.32,1.49,12.58,4.47c3.26,2.98,4.89,6.76,4.89,11.33s-1.63,8.35-4.89,11.33c-3.26,2.98-7.45,4.47-12.58,4.47ZM1538.91,403.63v-104.19h28.08v104.19h-28.08Z"></path><path class="cls-1" d="M1585.7,403.63v-104.19h24.54l2.08,17.26c3.33-5.96,7.94-10.74,13.83-14.35,5.89-3.6,13-5.41,21.32-5.41s15.87,1.84,21.84,5.51c5.96,3.67,10.5,9.01,13.62,16.01,3.12,7,4.68,15.57,4.68,25.68v59.48h-27.87v-56.78c0-8.45-1.77-14.94-5.3-19.44-3.54-4.5-8.98-6.76-16.33-6.76-4.72,0-8.91,1.11-12.58,3.33-3.68,2.22-6.55,5.41-8.63,9.57-2.08,4.16-3.12,9.22-3.12,15.18v54.9h-28.08Z"></path><path class="cls-1" d="M1749.16,451.88c-9.98,0-18.68-1.22-26.1-3.64-7.42-2.43-13.17-6.1-17.26-11.02-4.09-4.92-6.13-10.99-6.13-18.2,0-4.85,1.25-9.43,3.74-13.73s6.17-8.21,11.02-11.75c4.85-3.54,10.81-6.55,17.89-9.05l10.61,13.93c-6.38,2.08-10.95,4.68-13.73,7.8-2.77,3.12-4.16,6.41-4.16,9.88,0,3.19,1.04,5.89,3.12,8.11,2.08,2.22,4.96,3.85,8.63,4.89,3.67,1.04,7.8,1.56,12.37,1.56,4.3,0,8.08-.56,11.33-1.66,3.26-1.11,5.82-2.74,7.69-4.89,1.87-2.15,2.81-4.68,2.81-7.59,0-3.74-1.32-6.76-3.95-9.05-2.64-2.29-7.83-3.71-15.6-4.26-7.07-.55-13.35-1.35-18.82-2.39-5.48-1.04-10.26-2.29-14.35-3.74-4.09-1.46-7.59-3.08-10.5-4.89-2.91-1.8-5.27-3.6-7.07-5.41v-4.78l22.25-23.92,19.97,6.24-26,26,8.11-13.73c1.38.83,2.81,1.63,4.26,2.39,1.46.76,3.29,1.46,5.51,2.08,2.22.62,5.1,1.18,8.63,1.66,3.54.49,8.07,1.01,13.62,1.56,9.15.83,16.64,2.53,22.46,5.1,5.82,2.57,10.12,6.07,12.89,10.5,2.77,4.44,4.16,9.77,4.16,16.01s-1.7,12.09-5.1,17.57c-3.4,5.48-8.6,9.91-15.6,13.31-7,3.4-15.91,5.1-26.72,5.1ZM1749.37,372.85c-8.73,0-16.26-1.7-22.56-5.1-6.31-3.4-11.16-7.94-14.56-13.62-3.4-5.68-5.1-12.06-5.1-19.13s1.7-13.45,5.1-19.13c3.4-5.68,8.25-10.26,14.56-13.73,6.31-3.46,13.83-5.2,22.56-5.2s16.25,1.74,22.56,5.2c6.31,3.47,11.13,8.04,14.45,13.73,3.33,5.69,4.99,12.06,4.99,19.13s-1.66,13.45-4.99,19.13c-3.33,5.69-8.15,10.23-14.45,13.62-6.31,3.4-13.83,5.1-22.56,5.1ZM1749.37,351.43c5.27,0,9.57-1.38,12.89-4.16,3.33-2.77,4.99-6.86,4.99-12.27s-1.66-9.29-4.99-12.06c-3.33-2.77-7.63-4.16-12.89-4.16s-9.81,1.39-13.21,4.16c-3.4,2.77-5.1,6.79-5.1,12.06s1.7,9.5,5.1,12.27c3.4,2.77,7.8,4.16,13.21,4.16ZM1766.42,319.4l-4.58-19.96h43.26v16.64l-38.68,3.33Z"></path></g></svg>